<?xml version="1.0" encoding="iso-8859-1"?>
<!-- Generator: Adobe Illustrator 17.1.0, SVG Export Plug-In . SVG Version: 6.00 Build 0)  -->
<!DOCTYPE svg PUBLIC "-//W3C//DTD SVG 1.1//EN" "http://www.w3.org/Graphics/SVG/1.1/DTD/svg11.dtd">
<svg version="1.1" id="Capa_1" xmlns="http://www.w3.org/2000/svg" xmlns:xlink="http://www.w3.org/1999/xlink" x="0px" y="0px"
	 viewBox="0 0 208.688 208.688" style="enable-background:new 0 0 208.688 208.688;" xml:space="preserve">
<path d="M197.938,145.594H10.75c-5.928,0-10.75-4.822-10.75-10.75v-61c0-5.928,4.822-10.75,10.75-10.75h187.188
	c5.928,0,10.75,4.822,10.75,10.75v61C208.688,140.772,203.866,145.594,197.938,145.594z M10.75,67.094
	c-3.722,0-6.75,3.028-6.75,6.75v61c0,3.722,3.028,6.75,6.75,6.75h187.188c3.722,0,6.75-3.028,6.75-6.75v-61
	c0-3.722-3.028-6.75-6.75-6.75H10.75z M187.579,131.427h-21.484c-4.094,0-7.425-3.33-7.425-7.424v-0.109
	c0-4.094,3.331-7.425,7.425-7.425h21.484c4.094,0,7.425,3.331,7.425,7.425v0.109C195.004,128.097,191.673,131.427,187.579,131.427z
	 M178.837,127.427h8.742c1.889,0,3.425-1.536,3.425-3.424v-0.109c0-1.889-1.536-3.425-3.425-3.425h-8.742V127.427z M166.095,120.469
	c-1.889,0-3.425,1.536-3.425,3.425v0.109c0,1.888,1.536,3.424,3.425,3.424h8.742v-6.958H166.095z M145.5,131.427H17
	c-1.104,0-2-0.896-2-2v-26.333c0-1.104,0.896-2,2-2h128.5c1.104,0,2,0.896,2,2v26.333C147.5,130.532,146.604,131.427,145.5,131.427z
	 M19,127.427h124.5v-22.333H19V127.427z M124.653,124.719h-6.75c-1.104,0-2-0.896-2-2s0.896-2,2-2h6.75c1.104,0,2,0.896,2,2
	S125.758,124.719,124.653,124.719z M108.098,124.719h-6.75c-1.104,0-2-0.896-2-2s0.896-2,2-2h6.75c1.104,0,2,0.896,2,2
	S109.202,124.719,108.098,124.719z M91.542,124.719h-6.75c-1.104,0-2-0.896-2-2s0.896-2,2-2h6.75c1.104,0,2,0.896,2,2
	S92.646,124.719,91.542,124.719z M74.986,124.719h-6.75c-1.104,0-2-0.896-2-2s0.896-2,2-2h6.75c1.104,0,2,0.896,2,2
	S76.091,124.719,74.986,124.719z M58.431,124.719h-6.75c-1.104,0-2-0.896-2-2s0.896-2,2-2h6.75c1.104,0,2,0.896,2,2
	S59.535,124.719,58.431,124.719z M41.876,124.719h-6.75c-1.104,0-2-0.896-2-2s0.896-2,2-2h6.75c1.104,0,2,0.896,2,2
	S42.98,124.719,41.876,124.719z M108.098,119.261h-6.75c-1.104,0-2-0.896-2-2s0.896-2,2-2h6.75c1.104,0,2,0.896,2,2
	S109.202,119.261,108.098,119.261z M91.542,119.261h-6.75c-1.104,0-2-0.896-2-2s0.896-2,2-2h6.75c1.104,0,2,0.896,2,2
	S92.646,119.261,91.542,119.261z M74.986,119.261h-6.75c-1.104,0-2-0.896-2-2s0.896-2,2-2h6.75c1.104,0,2,0.896,2,2
	S76.091,119.261,74.986,119.261z M58.431,119.261h-6.75c-1.104,0-2-0.896-2-2s0.896-2,2-2h6.75c1.104,0,2,0.896,2,2
	S59.535,119.261,58.431,119.261z M108.098,113.803h-6.75c-1.104,0-2-0.896-2-2s0.896-2,2-2h6.75c1.104,0,2,0.896,2,2
	S109.202,113.803,108.098,113.803z M74.986,113.803h-6.75c-1.104,0-2-0.896-2-2s0.896-2,2-2h6.75c1.104,0,2,0.896,2,2
	S76.091,113.803,74.986,113.803z M176.837,113.094c-10.018,0-18.167-8.149-18.167-18.167c0-10.017,8.149-18.166,18.167-18.166
	s18.167,8.149,18.167,18.166C195.004,104.945,186.854,113.094,176.837,113.094z M176.837,80.761
	c-7.812,0-14.167,6.354-14.167,14.166s6.355,14.167,14.167,14.167s14.167-6.355,14.167-14.167S184.648,80.761,176.837,80.761z
	 M176.837,104.52c-5.289,0-9.593-4.304-9.593-9.593s4.304-9.592,9.593-9.592s9.593,4.303,9.593,9.592S182.126,104.52,176.837,104.52
	z M176.837,89.335c-3.084,0-5.593,2.509-5.593,5.592c0,3.084,2.509,5.593,5.593,5.593s5.593-2.509,5.593-5.593
	C182.43,91.844,179.921,89.335,176.837,89.335z M145.5,96.094h-20.333c-1.104,0-2-0.896-2-2v-6.333c0-1.104,0.896-2,2-2H145.5
	c1.104,0,2,0.896,2,2v6.333C147.5,95.199,146.604,96.094,145.5,96.094z M127.167,92.094H143.5v-2.333h-16.333V92.094z
	 M109.445,96.094H89.111c-1.104,0-2-0.896-2-2v-6.333c0-1.104,0.896-2,2-2h20.334c1.104,0,2,0.896,2,2v6.333
	C111.445,95.199,110.55,96.094,109.445,96.094z M91.111,92.094h16.334v-2.333H91.111V92.094z M73.39,96.094H53.056
	c-1.104,0-2-0.896-2-2v-6.333c0-1.104,0.896-2,2-2H73.39c1.104,0,2,0.896,2,2v6.333C75.39,95.199,74.494,96.094,73.39,96.094z
	 M55.056,92.094H71.39v-2.333H55.056V92.094z M37.334,96.094H17c-1.104,0-2-0.896-2-2v-6.333c0-1.104,0.896-2,2-2h20.334
	c1.104,0,2,0.896,2,2v6.333C39.334,95.199,38.438,96.094,37.334,96.094z M19,92.094h16.334v-2.333H19V92.094z M145.5,80.761H17
	c-1.104,0-2-0.896-2-2s0.896-2,2-2h128.5c1.104,0,2,0.896,2,2S146.604,80.761,145.5,80.761z"/>
<g>
</g>
<g>
</g>
<g>
</g>
<g>
</g>
<g>
</g>
<g>
</g>
<g>
</g>
<g>
</g>
<g>
</g>
<g>
</g>
<g>
</g>
<g>
</g>
<g>
</g>
<g>
</g>
<g>
</g>
</svg>
