<?xml version="1.0" encoding="iso-8859-1"?>
<!-- Generator: Adobe Illustrator 17.1.0, SVG Export Plug-In . SVG Version: 6.00 Build 0)  -->
<!DOCTYPE svg PUBLIC "-//W3C//DTD SVG 1.1//EN" "http://www.w3.org/Graphics/SVG/1.1/DTD/svg11.dtd">
<svg version="1.1" id="Capa_1" xmlns="http://www.w3.org/2000/svg" xmlns:xlink="http://www.w3.org/1999/xlink" x="0px" y="0px"
	 viewBox="0 0 211.122 211.122" style="enable-background:new 0 0 211.122 211.122;" xml:space="preserve">
<path d="M206.154,178.061H4.968c-2.74,0-4.968-2.229-4.968-4.968V38.029c0-2.739,2.229-4.968,4.968-4.968h201.186
	c2.739,0,4.968,2.229,4.968,4.968v135.064C211.122,175.832,208.893,178.061,206.154,178.061z M4.968,37.061
	C4.435,37.061,4,37.495,4,38.029v135.064c0,0.533,0.435,0.968,0.968,0.968h201.186c0.533,0,0.968-0.435,0.968-0.968V38.029
	c0-0.533-0.435-0.968-0.968-0.968H4.968z M189.521,165.561c-1.104,0-2-0.896-2-2v-9.75h-3.334c-1.104,0-2-0.896-2-2s0.896-2,2-2
	h3.334v-36.75c0-1.104,0.896-2,2-2s2,0.896,2,2v36.75h3.333c1.104,0,2,0.896,2,2s-0.896,2-2,2h-3.333v9.75
	C191.521,164.665,190.625,165.561,189.521,165.561z M166.061,165.561c-1.104,0-2-0.896-2-2v-16.5h-3.333c-1.105,0-2-0.896-2-2
	s0.895-2,2-2h3.333v-30c0-1.104,0.896-2,2-2s2,0.896,2,2v30h3.333c1.104,0,2,0.896,2,2s-0.896,2-2,2h-3.333v16.5
	C168.061,164.665,167.166,165.561,166.061,165.561z M138.527,165.561c-1.104,0-2-0.896-2-2v-41h-3.334c-1.104,0-2-0.896-2-2
	s0.896-2,2-2h3.334v-5.5c0-1.104,0.896-2,2-2s2,0.896,2,2v5.5h3.333c1.104,0,2,0.896,2,2s-0.896,2-2,2h-3.333v41
	C140.527,164.665,139.631,165.561,138.527,165.561z M115.067,165.561c-1.104,0-2-0.896-2-2v-26h-3.334c-1.104,0-2-0.896-2-2
	s0.896-2,2-2h3.334v-20.5c0-1.104,0.896-2,2-2s2,0.896,2,2v20.5h3.333c1.104,0,2,0.896,2,2s-0.896,2-2,2h-3.333v26
	C117.067,164.665,116.171,165.561,115.067,165.561z M91.607,165.561c-1.104,0-2-0.896-2-2v-6.75h-3.333c-1.104,0-2-0.896-2-2
	s0.896-2,2-2h3.333v-39.75c0-1.104,0.896-2,2-2s2,0.896,2,2v39.75h3.333c1.104,0,2,0.896,2,2s-0.896,2-2,2h-3.333v6.75
	C93.607,164.665,92.711,165.561,91.607,165.561z M68.147,165.561c-1.104,0-2-0.896-2-2v-26h-3.333c-1.104,0-2-0.896-2-2s0.896-2,2-2
	h3.333v-20.5c0-1.104,0.896-2,2-2s2,0.896,2,2v20.5h3.333c1.104,0,2,0.896,2,2s-0.896,2-2,2h-3.333v26
	C70.147,164.665,69.251,165.561,68.147,165.561z M44.688,165.561c-1.104,0-2-0.896-2-2v-32.25h-3.333c-1.104,0-2-0.896-2-2
	s0.896-2,2-2h3.333v-14.25c0-1.104,0.896-2,2-2s2,0.896,2,2v14.25h3.333c1.104,0,2,0.896,2,2s-0.896,2-2,2h-3.333v32.25
	C46.688,164.665,45.792,165.561,44.688,165.561z M21.228,165.561c-1.104,0-2-0.896-2-2v-41h-3.333c-1.104,0-2-0.896-2-2s0.896-2,2-2
	h3.333v-5.5c0-1.104,0.896-2,2-2s2,0.896,2,2v5.5h3.333c1.104,0,2,0.896,2,2s-0.896,2-2,2h-3.333v41
	C23.228,164.665,22.332,165.561,21.228,165.561z M196.061,101.448h-35.333c-1.105,0-2-0.896-2-2V46.805c0-1.104,0.895-2,2-2h35.333
	c1.104,0,2,0.896,2,2v52.643C198.061,100.552,197.166,101.448,196.061,101.448z M186.187,97.448h7.874V48.805h-31.333v48.643h5.583
	V59.811c0-1.104,0.896-2,2-2s2,0.896,2,2v37.637h9.876V71.811c0-1.104,0.896-2,2-2s2,0.896,2,2V97.448z M138.527,101.448
	c-4.044,0-7.334-3.29-7.334-7.334c0-4.043,3.29-7.333,7.334-7.333c4.043,0,7.333,3.29,7.333,7.333
	C145.86,98.157,142.57,101.448,138.527,101.448z M138.527,90.781c-1.838,0-3.334,1.495-3.334,3.333s1.496,3.334,3.334,3.334
	s3.333-1.496,3.333-3.334S140.365,90.781,138.527,90.781z M115.067,101.448c-4.044,0-7.334-3.29-7.334-7.334
	c0-4.043,3.29-7.333,7.334-7.333c4.043,0,7.333,3.29,7.333,7.333C122.4,98.157,119.11,101.448,115.067,101.448z M115.067,90.781
	c-1.838,0-3.334,1.495-3.334,3.333s1.496,3.334,3.334,3.334s3.333-1.496,3.333-3.334S116.905,90.781,115.067,90.781z
	 M91.607,101.448c-4.044,0-7.333-3.29-7.333-7.334c0-4.043,3.29-7.333,7.333-7.333c4.043,0,7.333,3.29,7.333,7.333
	C98.94,98.157,95.65,101.448,91.607,101.448z M91.607,90.781c-1.838,0-3.333,1.495-3.333,3.333s1.496,3.334,3.333,3.334
	s3.333-1.496,3.333-3.334S93.445,90.781,91.607,90.781z M68.147,101.448c-4.043,0-7.333-3.29-7.333-7.334
	c0-4.043,3.29-7.333,7.333-7.333c4.044,0,7.333,3.29,7.333,7.333C75.48,98.157,72.191,101.448,68.147,101.448z M68.147,90.781
	c-1.838,0-3.333,1.495-3.333,3.333s1.495,3.334,3.333,3.334s3.333-1.496,3.333-3.334S69.985,90.781,68.147,90.781z M44.688,101.448
	c-4.044,0-7.333-3.29-7.333-7.334c0-4.043,3.29-7.333,7.333-7.333c4.043,0,7.333,3.29,7.333,7.333
	C52.021,98.157,48.731,101.448,44.688,101.448z M44.688,90.781c-1.838,0-3.333,1.495-3.333,3.333s1.496,3.334,3.333,3.334
	s3.333-1.496,3.333-3.334S46.525,90.781,44.688,90.781z M21.228,101.448c-4.043,0-7.333-3.29-7.333-7.334
	c0-4.043,3.29-7.333,7.333-7.333c4.044,0,7.333,3.29,7.333,7.333C28.561,98.157,25.271,101.448,21.228,101.448z M21.228,90.781
	c-1.838,0-3.333,1.495-3.333,3.333s1.495,3.334,3.333,3.334s3.333-1.496,3.333-3.334S23.065,90.781,21.228,90.781z M138.527,80.459
	c-4.044,0-7.334-3.29-7.334-7.333s3.29-7.333,7.334-7.333c4.043,0,7.333,3.29,7.333,7.333S142.57,80.459,138.527,80.459z
	 M138.527,69.793c-1.838,0-3.334,1.495-3.334,3.333s1.496,3.333,3.334,3.333s3.333-1.495,3.333-3.333S140.365,69.793,138.527,69.793
	z M115.067,80.459c-4.044,0-7.334-3.29-7.334-7.333s3.29-7.333,7.334-7.333c4.043,0,7.333,3.29,7.333,7.333
	S119.11,80.459,115.067,80.459z M115.067,69.793c-1.838,0-3.334,1.495-3.334,3.333s1.496,3.333,3.334,3.333s3.333-1.495,3.333-3.333
	S116.905,69.793,115.067,69.793z M91.607,80.459c-4.044,0-7.333-3.29-7.333-7.333s3.29-7.333,7.333-7.333
	c4.043,0,7.333,3.29,7.333,7.333S95.65,80.459,91.607,80.459z M91.607,69.793c-1.838,0-3.333,1.495-3.333,3.333
	s1.496,3.333,3.333,3.333s3.333-1.495,3.333-3.333S93.445,69.793,91.607,69.793z M68.147,80.459c-4.043,0-7.333-3.29-7.333-7.333
	s3.29-7.333,7.333-7.333c4.044,0,7.333,3.29,7.333,7.333S72.191,80.459,68.147,80.459z M68.147,69.793
	c-1.838,0-3.333,1.495-3.333,3.333s1.495,3.333,3.333,3.333s3.333-1.495,3.333-3.333S69.985,69.793,68.147,69.793z M44.688,80.459
	c-4.044,0-7.333-3.29-7.333-7.333s3.29-7.333,7.333-7.333c4.043,0,7.333,3.29,7.333,7.333S48.731,80.459,44.688,80.459z
	 M44.688,69.793c-1.838,0-3.333,1.495-3.333,3.333s1.496,3.333,3.333,3.333s3.333-1.495,3.333-3.333S46.525,69.793,44.688,69.793z
	 M21.228,80.459c-4.043,0-7.333-3.29-7.333-7.333s3.29-7.333,7.333-7.333c4.044,0,7.333,3.29,7.333,7.333
	S25.271,80.459,21.228,80.459z M21.228,69.793c-1.838,0-3.333,1.495-3.333,3.333s1.495,3.333,3.333,3.333s3.333-1.495,3.333-3.333
	S23.065,69.793,21.228,69.793z M138.527,59.472c-4.044,0-7.334-3.29-7.334-7.333c0-4.044,3.29-7.334,7.334-7.334
	c4.043,0,7.333,3.29,7.333,7.334C145.86,56.182,142.57,59.472,138.527,59.472z M138.527,48.805c-1.838,0-3.334,1.496-3.334,3.334
	s1.496,3.333,3.334,3.333s3.333-1.495,3.333-3.333S140.365,48.805,138.527,48.805z M115.067,59.472c-4.044,0-7.334-3.29-7.334-7.333
	c0-4.044,3.29-7.334,7.334-7.334c4.043,0,7.333,3.29,7.333,7.334C122.4,56.182,119.11,59.472,115.067,59.472z M115.067,48.805
	c-1.838,0-3.334,1.496-3.334,3.334s1.496,3.333,3.334,3.333s3.333-1.495,3.333-3.333S116.905,48.805,115.067,48.805z M91.607,59.472
	c-4.044,0-7.333-3.29-7.333-7.333c0-4.044,3.29-7.334,7.333-7.334c4.043,0,7.333,3.29,7.333,7.334
	C98.94,56.182,95.65,59.472,91.607,59.472z M91.607,48.805c-1.838,0-3.333,1.496-3.333,3.334s1.496,3.333,3.333,3.333
	s3.333-1.495,3.333-3.333S93.445,48.805,91.607,48.805z M68.147,59.472c-4.043,0-7.333-3.29-7.333-7.333
	c0-4.044,3.29-7.334,7.333-7.334c4.044,0,7.333,3.29,7.333,7.334C75.48,56.182,72.191,59.472,68.147,59.472z M68.147,48.805
	c-1.838,0-3.333,1.496-3.333,3.334s1.495,3.333,3.333,3.333s3.333-1.495,3.333-3.333S69.985,48.805,68.147,48.805z M44.688,59.472
	c-4.044,0-7.333-3.29-7.333-7.333c0-4.044,3.29-7.334,7.333-7.334c4.043,0,7.333,3.29,7.333,7.334
	C52.021,56.182,48.731,59.472,44.688,59.472z M44.688,48.805c-1.838,0-3.333,1.496-3.333,3.334s1.496,3.333,3.333,3.333
	s3.333-1.495,3.333-3.333S46.525,48.805,44.688,48.805z M21.228,59.472c-4.043,0-7.333-3.29-7.333-7.333
	c0-4.044,3.29-7.334,7.333-7.334c4.044,0,7.333,3.29,7.333,7.334C28.561,56.182,25.271,59.472,21.228,59.472z M21.228,48.805
	c-1.838,0-3.333,1.496-3.333,3.334s1.495,3.333,3.333,3.333s3.333-1.495,3.333-3.333S23.065,48.805,21.228,48.805z"/>
<g>
</g>
<g>
</g>
<g>
</g>
<g>
</g>
<g>
</g>
<g>
</g>
<g>
</g>
<g>
</g>
<g>
</g>
<g>
</g>
<g>
</g>
<g>
</g>
<g>
</g>
<g>
</g>
<g>
</g>
</svg>
