<?xml version="1.0" encoding="iso-8859-1"?>
<!-- Generator: Adobe Illustrator 17.1.0, SVG Export Plug-In . SVG Version: 6.00 Build 0)  -->
<!DOCTYPE svg PUBLIC "-//W3C//DTD SVG 1.1//EN" "http://www.w3.org/Graphics/SVG/1.1/DTD/svg11.dtd">
<svg version="1.1" id="Capa_1" xmlns="http://www.w3.org/2000/svg" xmlns:xlink="http://www.w3.org/1999/xlink" x="0px" y="0px"
	 viewBox="0 0 202.25 202.25" style="enable-background:new 0 0 202.25 202.25;" xml:space="preserve">
<path d="M189.578,172.313H154.75c-1.104,0-2-0.896-2-2v-9.109l-4.711,4.71c-0.781,0.781-2.047,0.781-2.828,0l-6.711-6.71
	l-6.711,6.71c-0.75,0.75-2.078,0.75-2.828,0l-6.711-6.71l-6.711,6.71c-0.781,0.781-2.047,0.781-2.828,0l-6.711-6.71l-6.711,6.71
	c-0.781,0.781-2.047,0.781-2.828,0l-6.711-6.71l-6.711,6.71c-0.781,0.781-2.047,0.781-2.828,0l-4.711-4.71v9.109
	c0,1.104-0.896,2-2,2H11.75c-6.479,0-11.75-5.271-11.75-11.75V41.688c0-6.479,5.271-11.75,11.75-11.75H73.5c1.104,0,2,0.896,2,2
	v9.994l4.711-4.71c0.781-0.781,2.047-0.781,2.828,0l6.711,6.71l6.711-6.71c0.781-0.781,2.047-0.781,2.828,0l6.711,6.71l6.711-6.71
	c0.781-0.781,2.047-0.781,2.828,0l6.711,6.71l6.711-6.71c0.75-0.75,2.078-0.75,2.828,0l6.711,6.71l6.711-6.71
	c0.781-0.781,2.047-0.781,2.828,0l4.711,4.71v-9.994c0-1.104,0.896-2,2-2h34.828c6.987,0,12.672,5.685,12.672,12.672v117.031
	C202.25,166.628,196.565,172.313,189.578,172.313z M156.75,168.313h32.828c4.781,0,8.672-3.89,8.672-8.672V42.609
	c0-4.782-3.891-8.672-8.672-8.672H156.75V168.313z M45,168.313h26.5V33.938H45V168.313z M11.75,33.938
	c-4.273,0-7.75,3.477-7.75,7.75v118.875c0,4.273,3.477,7.75,7.75,7.75H41v-5.479H12.167c-1.104,0-2-0.896-2-2V41.417
	c0-1.104,0.896-2,2-2H41v-5.479H11.75z M140.5,155.546l6.125,6.125l6.125-6.125V47.589l-6.125-6.125l-6.125,6.125V155.546z
	 M124.25,155.546l6.125,6.125l6.125-6.125V47.589l-6.125-6.125l-6.125,6.125V155.546z M108,155.546l6.125,6.125l6.125-6.125V47.589
	l-6.125-6.125L108,47.589V155.546z M91.75,155.546l6.125,6.125l6.125-6.125V47.589l-6.125-6.125l-6.125,6.125V155.546z
	 M75.5,155.546l6.125,6.125l6.125-6.125V47.589l-6.125-6.125L75.5,47.589V155.546z M14.167,158.833H41v-5.448H22.5
	c-1.104,0-2-0.896-2-2v-1.667h-6.333V158.833z M24.5,149.385H41v-3.333H24.5V149.385z M14.167,145.719H20.5v-1.667
	c0-1.104,0.896-2,2-2H41v-4.042H14.167V145.719z M14.167,134.01H41v-4.083H22.5c-1.104,0-2-0.896-2-2v-1.667h-6.333V134.01z
	 M24.5,125.927H41v-3.333H24.5V125.927z M14.167,122.26H20.5v-1.667c0-1.104,0.896-2,2-2H41v-4.042H14.167V122.26z M14.167,110.552
	H41v-4.083H22.5c-1.104,0-2-0.896-2-2v-1.667h-6.333V110.552z M24.5,102.469H41v-3.333H24.5V102.469z M14.167,98.802H20.5v-1.667
	c0-1.104,0.896-2,2-2H41v-4.042H14.167V98.802z M14.167,87.094H41V83.01H22.5c-1.104,0-2-0.896-2-2v-1.667h-6.333V87.094z
	 M24.5,79.01H41v-3.333H24.5V79.01z M14.167,75.344H20.5v-1.667c0-1.104,0.896-2,2-2H41v-4.042H14.167V75.344z M14.167,63.635H41
	v-4.083H22.5c-1.104,0-2-0.896-2-2v-1.667h-6.333V63.635z M24.5,55.552H41v-3.333H24.5V55.552z M14.167,51.885H20.5v-1.667
	c0-1.104,0.896-2,2-2H41v-4.802H14.167V51.885z M170.299,160.005c-3.179,0-5.766-2.586-5.766-5.766c0-3.179,2.587-5.766,5.766-5.766
	c3.18,0,5.767,2.587,5.767,5.766C176.065,157.419,173.479,160.005,170.299,160.005z M170.299,152.473
	c-0.974,0-1.766,0.792-1.766,1.766s0.792,1.766,1.766,1.766s1.767-0.792,1.767-1.766S171.272,152.473,170.299,152.473z
	 M184.894,150.638c-3.18,0-5.767-2.586-5.767-5.766c0-3.18,2.587-5.766,5.767-5.766c3.179,0,5.766,2.586,5.766,5.766
	C190.659,148.051,188.072,150.638,184.894,150.638z M184.894,143.106c-0.974,0-1.767,0.792-1.767,1.766s0.793,1.766,1.767,1.766
	s1.766-0.792,1.766-1.766S185.867,143.106,184.894,143.106z M170.299,142.469c-3.179,0-5.766-2.586-5.766-5.766
	s2.587-5.766,5.766-5.766c3.18,0,5.767,2.586,5.767,5.766S173.479,142.469,170.299,142.469z M170.299,134.937
	c-0.974,0-1.766,0.792-1.766,1.766s0.792,1.766,1.766,1.766s1.767-0.792,1.767-1.766S171.272,134.937,170.299,134.937z
	 M184.894,133.102c-3.18,0-5.767-2.587-5.767-5.766c0-3.18,2.587-5.766,5.767-5.766c3.179,0,5.766,2.586,5.766,5.766
	C190.659,130.515,188.072,133.102,184.894,133.102z M184.894,125.569c-0.974,0-1.767,0.792-1.767,1.766s0.793,1.766,1.767,1.766
	s1.766-0.792,1.766-1.766S185.867,125.569,184.894,125.569z M170.299,124.933c-3.179,0-5.766-2.587-5.766-5.766
	c0-3.18,2.587-5.766,5.766-5.766c3.18,0,5.767,2.586,5.767,5.766C176.065,122.346,173.479,124.933,170.299,124.933z M170.299,117.4
	c-0.974,0-1.766,0.792-1.766,1.766s0.792,1.766,1.766,1.766s1.767-0.792,1.767-1.766S171.272,117.4,170.299,117.4z M184.894,115.565
	c-3.18,0-5.767-2.586-5.767-5.766c0-3.179,2.587-5.766,5.767-5.766c3.179,0,5.766,2.587,5.766,5.766
	C190.659,112.979,188.072,115.565,184.894,115.565z M184.894,108.033c-0.974,0-1.767,0.792-1.767,1.766s0.793,1.766,1.767,1.766
	s1.766-0.792,1.766-1.766S185.867,108.033,184.894,108.033z M170.299,107.396c-3.179,0-5.766-2.587-5.766-5.766
	s2.587-5.766,5.766-5.766c3.18,0,5.767,2.587,5.767,5.766S173.479,107.396,170.299,107.396z M170.299,99.864
	c-0.974,0-1.766,0.792-1.766,1.766s0.792,1.766,1.766,1.766s1.767-0.792,1.767-1.766S171.272,99.864,170.299,99.864z
	 M184.894,98.029c-3.18,0-5.767-2.586-5.767-5.766s2.587-5.766,5.767-5.766c3.179,0,5.766,2.586,5.766,5.766
	S188.072,98.029,184.894,98.029z M184.894,90.497c-0.974,0-1.767,0.792-1.767,1.766s0.793,1.766,1.767,1.766
	s1.766-0.792,1.766-1.766S185.867,90.497,184.894,90.497z M170.299,89.86c-3.179,0-5.766-2.586-5.766-5.766s2.587-5.766,5.766-5.766
	c3.18,0,5.767,2.586,5.767,5.766S173.479,89.86,170.299,89.86z M170.299,82.328c-0.974,0-1.766,0.792-1.766,1.766
	s0.792,1.766,1.766,1.766s1.767-0.792,1.767-1.766S171.272,82.328,170.299,82.328z M184.894,80.493c-3.18,0-5.767-2.587-5.767-5.766
	c0-3.18,2.587-5.766,5.767-5.766c3.179,0,5.766,2.586,5.766,5.766C190.659,77.906,188.072,80.493,184.894,80.493z M184.894,72.96
	c-0.974,0-1.767,0.792-1.767,1.766s0.793,1.766,1.767,1.766s1.766-0.792,1.766-1.766S185.867,72.96,184.894,72.96z M170.299,72.323
	c-3.179,0-5.766-2.586-5.766-5.766c0-3.179,2.587-5.766,5.766-5.766c3.18,0,5.767,2.586,5.767,5.766
	C176.065,69.737,173.479,72.323,170.299,72.323z M170.299,64.792c-0.974,0-1.766,0.792-1.766,1.766s0.792,1.766,1.766,1.766
	s1.767-0.792,1.767-1.766S171.272,64.792,170.299,64.792z M184.894,62.956c-3.18,0-5.767-2.587-5.767-5.766s2.587-5.766,5.767-5.766
	c3.179,0,5.766,2.587,5.766,5.766S188.072,62.956,184.894,62.956z M184.894,55.424c-0.974,0-1.767,0.792-1.767,1.766
	s0.793,1.766,1.767,1.766s1.766-0.792,1.766-1.766S185.867,55.424,184.894,55.424z M170.299,54.787
	c-3.179,0-5.766-2.586-5.766-5.766c0-3.179,2.587-5.766,5.766-5.766c3.18,0,5.767,2.587,5.767,5.766
	C176.065,52.201,173.479,54.787,170.299,54.787z M170.299,47.255c-0.974,0-1.766,0.792-1.766,1.766s0.792,1.766,1.766,1.766
	s1.767-0.792,1.767-1.766S171.272,47.255,170.299,47.255z"/>
<g>
</g>
<g>
</g>
<g>
</g>
<g>
</g>
<g>
</g>
<g>
</g>
<g>
</g>
<g>
</g>
<g>
</g>
<g>
</g>
<g>
</g>
<g>
</g>
<g>
</g>
<g>
</g>
<g>
</g>
</svg>
